G04 #@! TF.GenerationSoftware,KiCad,Pcbnew,(5.1.5-0-10_14)*
G04 #@! TF.CreationDate,2020-11-25T16:38:17+01:00*
G04 #@! TF.ProjectId,ab-mix,61622d6d-6978-42e6-9b69-6361645f7063,rev?*
G04 #@! TF.SameCoordinates,Original*
G04 #@! TF.FileFunction,Legend,Bot*
G04 #@! TF.FilePolarity,Positive*
%FSLAX46Y46*%
G04 Gerber Fmt 4.6, Leading zero omitted, Abs format (unit mm)*
G04 Created by KiCad (PCBNEW (5.1.5-0-10_14)) date 2020-11-25 16:38:17*
%MOMM*%
%LPD*%
G04 APERTURE LIST*
%ADD10C,0.127000*%
%ADD11C,0.120000*%
G04 APERTURE END LIST*
D10*
X138617000Y-71552000D02*
G75*
G03X138617000Y-71552000I-898000J0D01*
G01*
X128829000Y-71551998D02*
G75*
G03X137719000Y-80442000I8889901J-101D01*
G01*
X137719002Y-62662000D02*
G75*
G03X128829000Y-71552000I-101J-8889901D01*
G01*
X146609000Y-71552000D02*
G75*
G03X137719000Y-62662000I-8890000J0D01*
G01*
X137719000Y-80442000D02*
G75*
G03X146609000Y-71552000I0J8890000D01*
G01*
X142164000Y-79172000D02*
X150673000Y-79172000D01*
X150673000Y-63932000D02*
X142164000Y-63932000D01*
X146609000Y-71552000D02*
X128829000Y-71552000D01*
X137719000Y-80442000D02*
X137719000Y-62662000D01*
X150673000Y-79172000D02*
X150673000Y-63932000D01*
X150800000Y-78156000D02*
X150800000Y-75108000D01*
X150800000Y-73076000D02*
X150800000Y-70028000D01*
X150800000Y-67996000D02*
X150800000Y-64948000D01*
X150800000Y-78156000D02*
X153848000Y-78156000D01*
X153848000Y-78156000D02*
X153848000Y-75108000D01*
X153848000Y-75108000D02*
X150800000Y-75108000D01*
X150800000Y-73076000D02*
X153848000Y-73076000D01*
X153848000Y-73076000D02*
X153848000Y-70028000D01*
X153848000Y-70028000D02*
X150800000Y-70028000D01*
X150800000Y-67996000D02*
X153848000Y-67996000D01*
X153848000Y-67996000D02*
X153848000Y-64948000D01*
X153848000Y-64948000D02*
X150800000Y-64948000D01*
D11*
X87295000Y-58130000D02*
X87295000Y-55130000D01*
X98935000Y-55130000D02*
X87295000Y-55130000D01*
X98935000Y-58130000D02*
X98935000Y-55130000D01*
X97585000Y-82800000D02*
X97585000Y-78980000D01*
X102335000Y-58130000D02*
X98935000Y-58130000D01*
X83895000Y-58130000D02*
X83895000Y-59450000D01*
X102335000Y-58130000D02*
X102335000Y-59450000D01*
X102335000Y-74850000D02*
X102335000Y-78980000D01*
X102335000Y-68550000D02*
X102335000Y-72150000D01*
X102335000Y-62150000D02*
X102335000Y-65750000D01*
X83895000Y-65750000D02*
X83895000Y-62150000D01*
X83895000Y-72150000D02*
X83895000Y-68550000D01*
X83895000Y-78980000D02*
X83895000Y-74850000D01*
X102335000Y-78980000D02*
X97585000Y-78980000D01*
X97545000Y-82800000D02*
X88645000Y-82800000D01*
X88645000Y-82800000D02*
X88645000Y-78980000D01*
X88645000Y-78980000D02*
X83895000Y-78980000D01*
X87295000Y-58130000D02*
X83895000Y-58130000D01*
X154870000Y-83795000D02*
X157870000Y-83795000D01*
X157870000Y-95435000D02*
X157870000Y-83795000D01*
X154870000Y-95435000D02*
X157870000Y-95435000D01*
X130200000Y-94085000D02*
X134020000Y-94085000D01*
X154870000Y-98835000D02*
X154870000Y-95435000D01*
X154870000Y-80395000D02*
X153550000Y-80395000D01*
X154870000Y-98835000D02*
X153550000Y-98835000D01*
X138150000Y-98835000D02*
X134020000Y-98835000D01*
X144450000Y-98835000D02*
X140850000Y-98835000D01*
X150850000Y-98835000D02*
X147250000Y-98835000D01*
X147250000Y-80395000D02*
X150850000Y-80395000D01*
X140850000Y-80395000D02*
X144450000Y-80395000D01*
X134020000Y-80395000D02*
X138150000Y-80395000D01*
X134020000Y-98835000D02*
X134020000Y-94085000D01*
X130200000Y-94045000D02*
X130200000Y-85145000D01*
X130200000Y-85145000D02*
X134020000Y-85145000D01*
X134020000Y-85145000D02*
X134020000Y-80395000D01*
X154870000Y-83795000D02*
X154870000Y-80395000D01*
X154870000Y-104795000D02*
X157870000Y-104795000D01*
X157870000Y-116435000D02*
X157870000Y-104795000D01*
X154870000Y-116435000D02*
X157870000Y-116435000D01*
X130200000Y-115085000D02*
X134020000Y-115085000D01*
X154870000Y-119835000D02*
X154870000Y-116435000D01*
X154870000Y-101395000D02*
X153550000Y-101395000D01*
X154870000Y-119835000D02*
X153550000Y-119835000D01*
X138150000Y-119835000D02*
X134020000Y-119835000D01*
X144450000Y-119835000D02*
X140850000Y-119835000D01*
X150850000Y-119835000D02*
X147250000Y-119835000D01*
X147250000Y-101395000D02*
X150850000Y-101395000D01*
X140850000Y-101395000D02*
X144450000Y-101395000D01*
X134020000Y-101395000D02*
X138150000Y-101395000D01*
X134020000Y-119835000D02*
X134020000Y-115085000D01*
X130200000Y-115045000D02*
X130200000Y-106145000D01*
X130200000Y-106145000D02*
X134020000Y-106145000D01*
X134020000Y-106145000D02*
X134020000Y-101395000D01*
X154870000Y-104795000D02*
X154870000Y-101395000D01*
X45130000Y-95205000D02*
X42130000Y-95205000D01*
X42130000Y-83565000D02*
X42130000Y-95205000D01*
X45130000Y-83565000D02*
X42130000Y-83565000D01*
X69800000Y-84915000D02*
X65980000Y-84915000D01*
X45130000Y-80165000D02*
X45130000Y-83565000D01*
X45130000Y-98605000D02*
X46450000Y-98605000D01*
X45130000Y-80165000D02*
X46450000Y-80165000D01*
X61850000Y-80165000D02*
X65980000Y-80165000D01*
X55550000Y-80165000D02*
X59150000Y-80165000D01*
X49150000Y-80165000D02*
X52750000Y-80165000D01*
X52750000Y-98605000D02*
X49150000Y-98605000D01*
X59150000Y-98605000D02*
X55550000Y-98605000D01*
X65980000Y-98605000D02*
X61850000Y-98605000D01*
X65980000Y-80165000D02*
X65980000Y-84915000D01*
X69800000Y-84955000D02*
X69800000Y-93855000D01*
X69800000Y-93855000D02*
X65980000Y-93855000D01*
X65980000Y-93855000D02*
X65980000Y-98605000D01*
X45130000Y-95205000D02*
X45130000Y-98605000D01*
X45130000Y-116505000D02*
X42130000Y-116505000D01*
X42130000Y-104865000D02*
X42130000Y-116505000D01*
X45130000Y-104865000D02*
X42130000Y-104865000D01*
X69800000Y-106215000D02*
X65980000Y-106215000D01*
X45130000Y-101465000D02*
X45130000Y-104865000D01*
X45130000Y-119905000D02*
X46450000Y-119905000D01*
X45130000Y-101465000D02*
X46450000Y-101465000D01*
X61850000Y-101465000D02*
X65980000Y-101465000D01*
X55550000Y-101465000D02*
X59150000Y-101465000D01*
X49150000Y-101465000D02*
X52750000Y-101465000D01*
X52750000Y-119905000D02*
X49150000Y-119905000D01*
X59150000Y-119905000D02*
X55550000Y-119905000D01*
X65980000Y-119905000D02*
X61850000Y-119905000D01*
X65980000Y-101465000D02*
X65980000Y-106215000D01*
X69800000Y-106255000D02*
X69800000Y-115155000D01*
X69800000Y-115155000D02*
X65980000Y-115155000D01*
X65980000Y-115155000D02*
X65980000Y-119905000D01*
X45130000Y-116505000D02*
X45130000Y-119905000D01*
X121795000Y-58130000D02*
X121795000Y-55130000D01*
X133435000Y-55130000D02*
X121795000Y-55130000D01*
X133435000Y-58130000D02*
X133435000Y-55130000D01*
X132085000Y-82800000D02*
X132085000Y-78980000D01*
X136835000Y-58130000D02*
X133435000Y-58130000D01*
X118395000Y-58130000D02*
X118395000Y-59450000D01*
X136835000Y-58130000D02*
X136835000Y-59450000D01*
X136835000Y-74850000D02*
X136835000Y-78980000D01*
X136835000Y-68550000D02*
X136835000Y-72150000D01*
X136835000Y-62150000D02*
X136835000Y-65750000D01*
X118395000Y-65750000D02*
X118395000Y-62150000D01*
X118395000Y-72150000D02*
X118395000Y-68550000D01*
X118395000Y-78980000D02*
X118395000Y-74850000D01*
X136835000Y-78980000D02*
X132085000Y-78980000D01*
X132045000Y-82800000D02*
X123145000Y-82800000D01*
X123145000Y-82800000D02*
X123145000Y-78980000D01*
X123145000Y-78980000D02*
X118395000Y-78980000D01*
X121795000Y-58130000D02*
X118395000Y-58130000D01*
X66295000Y-58130000D02*
X66295000Y-55130000D01*
X77935000Y-55130000D02*
X66295000Y-55130000D01*
X77935000Y-58130000D02*
X77935000Y-55130000D01*
X76585000Y-82800000D02*
X76585000Y-78980000D01*
X81335000Y-58130000D02*
X77935000Y-58130000D01*
X62895000Y-58130000D02*
X62895000Y-59450000D01*
X81335000Y-58130000D02*
X81335000Y-59450000D01*
X81335000Y-74850000D02*
X81335000Y-78980000D01*
X81335000Y-68550000D02*
X81335000Y-72150000D01*
X81335000Y-62150000D02*
X81335000Y-65750000D01*
X62895000Y-65750000D02*
X62895000Y-62150000D01*
X62895000Y-72150000D02*
X62895000Y-68550000D01*
X62895000Y-78980000D02*
X62895000Y-74850000D01*
X81335000Y-78980000D02*
X76585000Y-78980000D01*
X76545000Y-82800000D02*
X67645000Y-82800000D01*
X67645000Y-82800000D02*
X67645000Y-78980000D01*
X67645000Y-78980000D02*
X62895000Y-78980000D01*
X66295000Y-58130000D02*
X62895000Y-58130000D01*
X105715000Y-78410000D02*
X105651500Y-78410000D01*
X105715000Y-75870000D02*
X105655000Y-75870000D01*
X105655000Y-75870000D02*
X105651500Y-78410000D01*
X105715000Y-75870000D02*
X105715000Y-78410000D01*
X108251500Y-75873500D02*
X108251500Y-77203500D01*
X106921500Y-75870000D02*
X108251500Y-75870000D01*
X110795000Y-78410000D02*
X110795000Y-78473500D01*
X108255000Y-78410000D02*
X108255000Y-78470000D01*
X108255000Y-78470000D02*
X110795000Y-78473500D01*
X108255000Y-78410000D02*
X110795000Y-78410000D01*
X108258500Y-75873500D02*
X109588500Y-75873500D01*
X108255000Y-77203500D02*
X108255000Y-75873500D01*
X113335000Y-78410000D02*
X113335000Y-78473500D01*
X110795000Y-78410000D02*
X110795000Y-78470000D01*
X110795000Y-78470000D02*
X113335000Y-78473500D01*
X110795000Y-78410000D02*
X113335000Y-78410000D01*
X110798500Y-75873500D02*
X112128500Y-75873500D01*
X110795000Y-77203500D02*
X110795000Y-75873500D01*
X130988000Y-122098000D02*
X130988000Y-122034500D01*
X133528000Y-122098000D02*
X133528000Y-122038000D01*
X133528000Y-122038000D02*
X130988000Y-122034500D01*
X133528000Y-122098000D02*
X130988000Y-122098000D01*
X133524500Y-124634500D02*
X132194500Y-124634500D01*
X133528000Y-123304500D02*
X133528000Y-124634500D01*
X133528000Y-122098000D02*
X133528000Y-122034500D01*
X136068000Y-122098000D02*
X136068000Y-122038000D01*
X136068000Y-122038000D02*
X133528000Y-122034500D01*
X136068000Y-122098000D02*
X133528000Y-122098000D01*
X136064500Y-124634500D02*
X134734500Y-124634500D01*
X136068000Y-123304500D02*
X136068000Y-124634500D01*
D10*
X76759000Y-117272000D02*
X75489000Y-117272000D01*
X76124000Y-117907000D02*
X76124000Y-116637000D01*
X73584000Y-118923000D02*
X74219000Y-118923000D01*
X73584000Y-115621000D02*
X73584000Y-118923000D01*
X74219000Y-115621000D02*
X73584000Y-115621000D01*
X74219000Y-118923000D02*
G75*
G02X74600000Y-118542000I381000J0D01*
G01*
X77902000Y-118542000D02*
X74600000Y-118542000D01*
X74219000Y-115621000D02*
G75*
G03X74600000Y-116002000I381000J0D01*
G01*
X77902000Y-116002000D02*
X74600000Y-116002000D01*
X77901999Y-116002001D02*
G75*
G02X78791000Y-116764000I63501J-825500D01*
G01*
X78791000Y-117780000D02*
X78791000Y-116764000D01*
X78791001Y-117779999D02*
G75*
G02X77902000Y-118542000I-825501J63500D01*
G01*
X126543001Y-117779999D02*
G75*
G02X125654000Y-118542000I-825501J63500D01*
G01*
X126543000Y-117780000D02*
X126543000Y-116764000D01*
X125653999Y-116002001D02*
G75*
G02X126543000Y-116764000I63501J-825500D01*
G01*
X125654000Y-116002000D02*
X122352000Y-116002000D01*
X121971000Y-115621000D02*
G75*
G03X122352000Y-116002000I381000J0D01*
G01*
X125654000Y-118542000D02*
X122352000Y-118542000D01*
X121971000Y-118923000D02*
G75*
G02X122352000Y-118542000I381000J0D01*
G01*
X121971000Y-115621000D02*
X121336000Y-115621000D01*
X121336000Y-115621000D02*
X121336000Y-118923000D01*
X121336000Y-118923000D02*
X121971000Y-118923000D01*
X123876000Y-117907000D02*
X123876000Y-116637000D01*
X124511000Y-117272000D02*
X123241000Y-117272000D01*
X99365000Y-85776000D02*
X100635000Y-85776000D01*
X100000000Y-85141000D02*
X100000000Y-86411000D01*
X102540000Y-84125000D02*
X101905000Y-84125000D01*
X102540000Y-87427000D02*
X102540000Y-84125000D01*
X101905000Y-87427000D02*
X102540000Y-87427000D01*
X101905000Y-84125000D02*
G75*
G02X101524000Y-84506000I-381000J0D01*
G01*
X98222000Y-84506000D02*
X101524000Y-84506000D01*
X101905000Y-87427000D02*
G75*
G03X101524000Y-87046000I-381000J0D01*
G01*
X98222000Y-87046000D02*
X101524000Y-87046000D01*
X98222001Y-87045999D02*
G75*
G02X97333000Y-86284000I-63501J825500D01*
G01*
X97333000Y-85268000D02*
X97333000Y-86284000D01*
X97332999Y-85268001D02*
G75*
G02X98222000Y-84506000I825501J-63500D01*
G01*
M02*
