M48
; DRILL file {KiCad (5.1.5-0-10_14)} date 2020 November 25, Wednesday 16:38:58
; FORMAT={-:-/ absolute / inch / decimal}
; #@! TF.CreationDate,2020-11-25T16:38:58+01:00
; #@! TF.GenerationSoftware,Kicad,Pcbnew,(5.1.5-0-10_14)
FMAT,2
INCH
T1C0.0157
T2C0.0315
T3C0.0394
T4C0.0433
T5C0.0551
T6C0.0630
T7C0.0669
%
G90
G05
T1
X2.59Y-3.66
X2.942Y-4.957
X3.25Y-3.04
X3.41Y-4.07
X3.41Y-4.16
X4.64Y-4.67
T2
X3.542Y-4.537
X3.542Y-4.837
X3.642Y-4.537
X3.642Y-4.837
X3.742Y-4.537
X3.742Y-4.837
X3.842Y-4.537
X3.842Y-4.837
X3.942Y-4.537
X3.942Y-4.837
X4.042Y-4.537
X4.042Y-4.837
X4.142Y-4.537
X4.142Y-4.837
X4.242Y-4.537
X4.242Y-4.837
X4.752Y-3.877
X4.752Y-3.977
X4.752Y-4.077
X4.752Y-4.177
X4.752Y-4.277
X4.752Y-4.377
X4.752Y-4.477
X5.052Y-3.877
X5.052Y-3.977
X5.052Y-4.077
X5.052Y-4.177
X5.052Y-4.277
X5.052Y-4.377
X5.052Y-4.477
X3.642Y-4.957
X3.642Y-5.257
X3.742Y-4.957
X3.742Y-5.257
X3.842Y-4.957
X3.842Y-5.257
X3.942Y-4.957
X3.942Y-5.257
X4.042Y-4.957
X4.042Y-5.257
X4.142Y-4.957
X4.142Y-5.257
X4.242Y-4.957
X4.242Y-5.257
X3.222Y-3.662
X3.222Y-3.762
X3.222Y-3.862
X3.222Y-3.962
X3.222Y-4.062
X3.222Y-4.162
X3.222Y-4.262
X3.222Y-4.362
X3.522Y-3.662
X3.522Y-3.762
X3.522Y-3.862
X3.522Y-3.962
X3.522Y-4.062
X3.522Y-4.162
X3.522Y-4.262
X3.522Y-4.362
T3
X4.637Y-3.437
X4.837Y-3.437
X2.822Y-4.242
X3.122Y-4.242
X3.887Y-3.377
X3.987Y-3.377
X2.067Y-2.467
X2.367Y-2.467
X4.947Y-3.437
X4.947Y-3.737
X4.412Y-3.037
X2.822Y-3.902
X3.122Y-3.902
X1.937Y-2.857
X1.937Y-2.957
X1.937Y-3.057
X3.037Y-4.957
X3.337Y-4.957
X4.367Y-4.957
X4.367Y-5.257
X3.0392Y-5.18
X3.3392Y-5.18
X4.357Y-4.107
X4.357Y-4.407
X4.532Y-3.877
X4.532Y-4.077
X4.632Y-3.977
X5.627Y-2.737
X5.627Y-2.937
X2.822Y-4.127
X3.122Y-4.127
X3.487Y-4.957
X3.487Y-5.157
X4.212Y-3.037
X4.317Y-3.437
X4.517Y-3.437
X3.842Y-5.362
X4.042Y-5.362
X2.067Y-2.577
X2.367Y-2.577
X5.797Y-2.677
X5.797Y-2.977
X2.822Y-4.012
X3.122Y-4.012
X1.937Y-2.517
X1.937Y-2.717
X4.827Y-4.617
X4.927Y-4.617
X4.487Y-4.957
X4.487Y-5.257
X4.537Y-3.632
X4.837Y-3.632
X4.187Y-5.362
X4.487Y-5.362
X5.057Y-3.437
X5.057Y-3.737
X2.867Y-3.337
X2.867Y-3.537
X2.067Y-2.687
X2.367Y-2.687
X2.947Y-4.617
X3.047Y-4.617
X4.727Y-4.877
X5.027Y-4.877
X4.537Y-3.737
X4.837Y-3.737
X3.842Y-5.472
X4.142Y-5.472
X3.047Y-3.337
X3.047Y-3.537
X4.537Y-4.207
X4.537Y-4.307
X4.537Y-4.407
X2.117Y-3.047
X2.217Y-3.047
X2.317Y-3.047
X5.307Y-4.857
X4.492Y-4.622
X4.492Y-4.822
X2.067Y-2.917
X2.367Y-2.917
X4.727Y-4.777
X5.027Y-4.777
X3.787Y-3.537
X4.087Y-3.537
X3.282Y-4.537
X3.282Y-4.837
X3.042Y-5.287
X3.342Y-5.287
X5.207Y-4.857
X2.067Y-2.357
X2.367Y-2.357
X3.457Y-3.437
X3.557Y-3.337
X3.557Y-3.537
X2.847Y-4.777
X3.147Y-4.777
X2.822Y-4.357
X3.122Y-4.357
X2.067Y-2.797
X2.367Y-2.797
X4.312Y-3.037
X3.042Y-5.397
X3.342Y-5.397
X3.037Y-5.067
X3.337Y-5.067
X3.407Y-4.537
X3.407Y-4.837
T4
X4.162Y-3.237
X4.562Y-3.237
T5
X5.997Y-2.617
X5.997Y-2.817
X5.997Y-3.017
T7
X3.3465Y-2.3937
X3.3465Y-2.6437
X3.3465Y-2.8937
X3.9854Y-2.3937
X3.9854Y-2.6437
X3.9854Y-2.8937
X2.5197Y-2.3937
X2.5197Y-2.6437
X2.5197Y-2.8937
X3.1587Y-2.3937
X3.1587Y-2.6437
X3.1587Y-2.8937
X4.7047Y-2.3937
X4.7047Y-2.6437
X4.7047Y-2.8937
X5.3437Y-2.3937
X5.3437Y-2.6437
X5.3437Y-2.8937
X1.8819Y-3.1996
X1.8819Y-3.8386
X2.1319Y-3.1996
X2.1319Y-3.8386
X2.3819Y-3.1996
X2.3819Y-3.8386
X5.4921Y-3.2087
X5.4921Y-3.8476
X5.7421Y-3.2087
X5.7421Y-3.8476
X5.9921Y-3.2087
X5.9921Y-3.8476
X1.8819Y-4.0382
X1.8819Y-4.6772
X2.1319Y-4.0382
X2.1319Y-4.6772
X2.3819Y-4.0382
X2.3819Y-4.6772
X5.4921Y-4.0354
X5.4921Y-4.6744
X5.7421Y-4.0354
X5.7421Y-4.6744
X5.9921Y-4.0354
X5.9921Y-4.6744
T6
G00X3.7606Y-3.752
M15
G01X3.7134Y-3.752
M16
G05
G00X3.7606Y-3.937
M15
G01X3.7134Y-3.937
M16
G05
G00X3.7606Y-4.122
M15
G01X3.7134Y-4.122
M16
G05
G00X3.9606Y-3.752
M15
G01X3.9134Y-3.752
M16
G05
G00X3.9606Y-3.937
M15
G01X3.9134Y-3.937
M16
G05
G00X3.9606Y-4.122
M15
G01X3.9134Y-4.122
M16
G05
G00X4.1606Y-3.752
M15
G01X4.1134Y-3.752
M16
G05
G00X4.1606Y-3.937
M15
G01X4.1134Y-3.937
M16
G05
G00X4.1606Y-4.122
M15
G01X4.1134Y-4.122
M16
G05
G00X2.363Y-5.0315
M15
G01X2.3157Y-5.0315
M16
G05
G00X2.363Y-5.2165
M15
G01X2.3157Y-5.2165
M16
G05
G00X2.363Y-5.4016
M15
G01X2.3157Y-5.4016
M16
G05
G00X2.563Y-5.0315
M15
G01X2.5157Y-5.0315
M16
G05
G00X2.563Y-5.2165
M15
G01X2.5157Y-5.2165
M16
G05
G00X2.563Y-5.4016
M15
G01X2.5157Y-5.4016
M16
G05
G00X2.763Y-5.0315
M15
G01X2.7157Y-5.0315
M16
G05
G00X2.763Y-5.2165
M15
G01X2.7157Y-5.2165
M16
G05
G00X2.763Y-5.4016
M15
G01X2.7157Y-5.4016
M16
G05
T0
M30
